HIERARCHY
ROOT hip
{
	OFFSET 0.000000 0.000000 0.000000 
	CHANNELS 6 Xposition Yposition Zposition Xrotation Zrotation Yrotation
	JOINT abdomen
	{
		OFFSET 0.000000 3.402643 0.000000 
		CHANNELS 3 Xrotation Zrotation Yrotation
		JOINT chest
		{
			OFFSET 0.000000 8.438565 -0.680529 
			CHANNELS 3 Xrotation Zrotation Yrotation
			JOINT neck
			{
				OFFSET 0.000000 10.207942 -0.272212 
				CHANNELS 3 Xrotation Zrotation Yrotation
				JOINT head
				{
					OFFSET 0.000000 3.130431 0.000000 
					CHANNELS 3 Xrotation Zrotation Yrotation
					End Site
					{
						OFFSET 0.000000 3.130435 0.000000 
					}
				}
			}
			JOINT lCollar
			{
				OFFSET 3.470700 6.669187 -0.816635 
				CHANNELS 3 Yrotation Zrotation Xrotation
				JOINT lShldr
				{
					OFFSET 3.198488 0.000000 0.000000 
					CHANNELS 3 Zrotation Yrotation Xrotation
					JOINT lForeArm
					{
						OFFSET 10.139888 0.000000 0.000000 
						CHANNELS 3 Yrotation Zrotation Xrotation
						JOINT lHand
						{
							OFFSET 8.370511 0.000000 0.000000 
							CHANNELS 3 Zrotation Yrotation Xrotation
							End Site
							{
								OFFSET 4.083176 0.000000 0.000000 
							}
						}
					}
				}
			}
			JOINT rCollar
			{
				OFFSET -3.470700 6.669187 -0.816635 
				CHANNELS 3 Yrotation Zrotation Xrotation
				JOINT rShldr
				{
					OFFSET -3.198488 0.000000 0.000000 
					CHANNELS 3 Zrotation Yrotation Xrotation
					JOINT rForeArm
					{
						OFFSET -10.139888 0.000000 0.000000 
						CHANNELS 3 Yrotation Zrotation Xrotation
						JOINT rHand
						{
							OFFSET -8.370511 0.000000 0.000000 
							CHANNELS 3 Zrotation Yrotation Xrotation
							End Site
							{
								OFFSET -4.083176 0.000000 0.000000 
							}
						}
					}
				}
			}
		}
	}
	JOINT lThigh
	{
		OFFSET 5.308129 -1.633274 1.361059 
		CHANNELS 3 Xrotation Zrotation Yrotation
		JOINT lShin
		{
			OFFSET -2.041588 -20.007561 0.000000 
			CHANNELS 3 Xrotation Zrotation Yrotation
			JOINT lFoot
			{
				OFFSET 0.000000 -19.190928 -1.224953 
				CHANNELS 3 Xrotation Yrotation Zrotation
				End Site
				{
					OFFSET 0.000000 -2.449906 4.627600 
				}
			}
		}
	}
	JOINT rThigh
	{
		OFFSET -5.308129 -1.633274 1.361059 
		CHANNELS 3 Xrotation Zrotation Yrotation
		JOINT rShin
		{
			OFFSET 2.041588 -20.007561 0.000000 
			CHANNELS 3 Xrotation Zrotation Yrotation
			JOINT rFoot
			{
				OFFSET 0.000000 -19.190928 -1.224953 
				CHANNELS 3 Xrotation Yrotation Zrotation
				End Site
				{
					OFFSET 0.000000 -2.449906 4.627600 
				}
			}
		}
	}
}
MOTION
Frames: 13
Frame Time: 0.050000
3.176997 42.682686 -1.524539 1.614260 1.650030 -1.630150 -3.339600 -2.861610 -2.539510 2.626950 -1.494140 -1.972910 -0.028617 0.811878 -0.155635 -2.958560 0.903542 -0.252972 -4.141850 -6.798530 -1.187090 -70.636299 11.694800 17.123899 -6.787660 -8.039630 2.323180 11.149100 -5.074580 -15.056400 -0.946592 5.303320 10.067400 70.524803 12.431000 -1.438240 18.814600 11.136800 19.788200 -2.361210 1.436580 0.107306 -7.108222 0.195415 -13.150477 10.703190 -3.886587 -0.786777 -6.637560 20.067568 0.528876 -11.211892 -3.953716 9.537862 8.958384 -1.006733 0.083877 3.170313 -11.125072 5.202085 
3.097067 34.922634 -1.975976 1.331048 1.635176 -1.610045 2.970795 -4.178227 -6.421581 15.567516 -0.934506 1.099260 -0.189897 0.826130 -0.164087 1.586158 -0.223814 -0.418366 3.398100 -3.145288 -1.153301 -69.426125 18.605425 17.722834 -27.585127 0.625766 5.698136 11.149100 -5.074580 -15.056400 -6.740573 5.491787 10.030694 69.496262 1.612888 -1.405435 36.305805 12.648638 12.711759 -3.084669 -1.900498 -0.117399 -30.946053 1.947312 -5.714798 60.728867 -3.216474 -8.099552 -32.708130 13.886761 5.233938 -35.423546 0.584789 3.656635 59.233376 -5.793907 -5.669509 -21.885489 -8.145122 6.952787 
2.944690 25.723280 -2.443507 0.901659 1.650840 -1.612800 10.209484 -5.625767 -10.798344 29.886385 -0.269258 4.459265 -0.337870 0.839206 -0.171842 6.161103 -1.379695 -0.571377 11.516784 1.079876 -1.034662 -67.991951 26.243349 18.379532 -52.837170 11.514262 10.213870 11.149100 -5.074580 -15.056400 -12.833338 5.430885 10.035530 68.477852 -10.146348 -1.366065 56.723896 14.016528 4.401326 -3.748438 -4.962247 -0.323564 -55.152096 5.503532 1.164168 112.107689 -2.396525 -15.586863 -58.778702 7.705953 9.938999 -60.651596 4.639298 -3.469774 110.684929 -10.548659 -11.587720 -46.941292 -5.165172 8.703490 
2.807969 21.053738 -2.749324 1.614260 1.650030 -1.630150 14.105400 -5.745770 -12.351800 32.076099 0.333344 4.544350 -0.028617 0.811878 -0.155635 1.919930 -0.559759 -0.268181 10.315900 3.716310 -0.131942 -66.737396 27.316099 18.414301 -81.079399 27.334000 19.410500 11.149100 -5.074580 -15.056400 -10.299400 2.488180 10.531100 69.625000 -9.646280 -1.326610 71.428902 10.905500 -2.098290 -2.361210 1.436580 0.107306 -64.116859 11.100683 2.673726 128.653198 -2.437967 -18.026630 -64.941437 4.853437 11.868587 -70.076271 4.830235 -7.852015 126.775688 -12.266538 -13.236845 -53.537659 -4.135371 9.034041 
3.178737 31.486771 -3.054897 3.952880 1.648060 -1.686690 11.743442 -3.938529 -8.910072 13.445882 0.805552 -0.650627 1.009668 0.720126 -0.101223 -14.780063 3.104236 0.657326 -5.159462 4.768628 1.365095 -66.020256 14.855247 17.466793 -106.486732 47.628574 32.353462 11.149100 -5.074580 -15.056400 5.174258 -5.409451 11.515505 72.874939 11.769877 -1.264472 74.862694 -0.026526 -4.914030 1.809159 20.661322 1.401817 -49.247780 11.035616 2.033519 87.615379 -5.328763 -11.840869 -41.659950 2.827553 3.292159 -51.504608 2.532583 -0.866009 87.611656 -11.207935 -7.106604 -36.438019 -3.445781 9.349767 
3.132508 39.008396 -3.266000 -2.069920 2.509570 -2.276920 6.696043 -3.802070 -4.198300 -8.720360 1.375320 -4.968480 2.014050 0.631370 -0.048587 -20.500500 4.562860 0.916140 -14.249000 13.220900 -0.971925 -66.207298 -13.153773 16.816500 -97.274803 52.571899 25.226400 11.149100 -5.074580 -15.056400 13.704300 -15.678400 10.771800 67.727501 37.157398 -1.050196 73.693901 -14.738400 -6.389480 2.904820 25.632601 1.736550 -19.758438 10.805452 1.127538 35.426426 -6.104520 -3.687009 -10.464548 1.657443 -3.316903 -27.741091 -0.502741 5.076482 42.226696 -7.384363 -1.070109 -15.581318 -2.984020 9.188783 
2.486237 53.059460 -3.639434 1.614260 1.650030 -1.630150 1.404275 -7.043160 -2.084450 -17.304100 2.243150 -3.595320 -0.028617 0.811878 -0.155635 -2.958560 0.903542 -0.252972 -3.055700 27.899799 -7.854170 -67.139763 -43.906013 17.333055 -45.926201 29.662399 -9.468610 11.149100 -5.074580 -15.056400 1.684680 -20.785601 7.691960 52.769901 48.864555 -0.700522 74.600700 -22.185839 -8.519920 -2.361210 1.436580 0.107306 -6.359522 10.288045 1.139971 -3.353305 -6.422064 -2.026125 32.209618 1.043607 -4.251258 -11.585944 -1.560850 4.927566 -2.129921 1.451332 -0.573751 40.819088 -2.712177 8.099712 
2.039386 63.189404 -4.058962 -27.423632 1.330812 -0.809870 -9.549043 -6.617455 -1.500959 -19.365971 3.153625 -2.933089 -11.668745 1.840499 -0.765642 -4.428673 0.434193 -0.790147 0.139719 14.615494 -6.427809 -67.127800 -31.582617 17.336058 -36.105267 8.071162 -13.966876 11.149100 -5.074580 -15.056400 -4.379889 -6.862151 7.920703 59.348469 51.020687 -0.681921 73.901741 -2.743233 -8.903408 -4.020840 -5.315573 -0.347223 9.372501 9.766586 3.893263 32.751270 -6.098233 -3.538516 30.126730 1.183575 -1.663640 11.310665 -2.801737 2.982333 30.921028 -4.980321 -0.272292 21.858879 -2.761454 7.312602 
1.997136 67.862213 -4.868629 -74.385696 1.650030 -0.630150 -21.715595 -4.586460 -1.609390 -18.798300 3.548340 -3.488980 -23.732901 2.906590 -1.397870 -16.527201 2.100600 -0.724411 -4.148200 -6.853800 -1.231900 -66.273415 -2.025364 17.241899 -54.851898 1.156000 -0.036684 11.149100 -5.074580 -15.056400 -2.437140 8.524880 9.673650 74.395302 49.479469 -0.666160 72.183838 20.180201 -8.586227 -2.361210 1.436580 0.107306 21.131704 9.277417 6.898390 56.650719 -7.002617 -6.900992 25.058592 0.896672 -2.117387 45.008976 -3.917913 2.942881 49.958359 -7.547301 -1.269777 12.785359 -2.891011 7.411428 
2.291483 69.926697 -6.349762 -110.651093 1.838435 -1.269622 -29.171803 -4.781218 -1.988466 -17.015430 3.072052 -3.808326 -26.244877 3.128570 -1.529511 -19.479031 2.535846 -0.685357 -6.991949 -9.205734 -0.030536 -65.073456 8.375415 17.794846 -66.081970 11.335835 4.975420 23.806200 -12.496290 -17.970051 1.259679 6.294343 9.755331 77.257492 48.089859 -0.418231 71.252708 20.562292 -9.200492 -0.659099 4.470637 0.310923 23.659534 9.079964 8.266216 77.939438 -7.375229 -9.847971 16.525120 1.014753 4.197281 54.233345 -6.074951 2.992172 66.259163 -8.430501 -3.293628 10.895625 4.963263 8.366672 
2.592518 70.638298 -7.898416 -133.386002 1.650030 -1.630150 -32.711899 -6.064350 -2.325000 -15.347100 2.383800 -3.867640 -23.732901 2.906590 -1.397870 -16.527201 2.100600 -0.724411 -7.774540 -1.412030 -1.318130 -63.284599 6.277250 18.134001 -68.596703 25.254101 2.981860 36.463299 -19.917999 -20.883699 4.014060 -3.469790 8.917730 73.053200 46.650917 -1.043650 70.474449 10.121500 -9.870930 0.323771 3.760360 0.262488 20.009331 9.243318 8.381562 99.552071 -6.040237 -11.912807 7.991647 1.132834 10.511950 39.190212 -8.581296 2.794026 83.746933 -11.793408 -5.127972 9.005891 12.817536 9.321915 
2.623943 70.676498 -8.770769 -146.989456 1.020829 -0.685730 -34.436729 -6.567756 -2.411679 -14.774857 2.173617 -3.930844 -22.691315 2.814546 -1.343286 -14.925179 1.842408 -0.762426 -7.784727 2.148834 -2.012441 -60.873539 5.647938 17.462181 -68.752045 29.766233 1.515910 36.463299 -19.917999 -20.883699 4.610819 -7.181680 8.541174 71.037567 44.411793 -3.594985 69.248436 5.595465 -9.545670 0.557592 2.879186 0.203206 11.153518 9.635660 8.021229 114.756096 -2.959671 -13.381248 4.748293 1.077168 9.959782 11.883201 -9.894733 2.836684 95.807762 -17.885345 -6.655651 6.657263 21.774076 16.199049 
2.585829 70.092171 -8.548790 -159.005005 0.091648 1.024350 -34.955803 -6.468860 -2.356590 -14.972100 2.241260 -3.980300 -22.974501 2.839570 -1.358130 -14.950100 1.828760 -0.776120 -7.623740 1.745290 -1.994250 -59.387306 6.648659 16.842199 -68.237801 28.351101 1.335340 36.463299 -19.917999 -20.883699 4.203320 -6.413060 8.571900 71.242699 42.471897 -7.572471 69.546570 6.058080 -8.973830 0.425170 2.603120 0.184827 -15.855791 9.670570 7.608834 125.465820 -0.735484 -14.957875 1.504939 1.021502 9.407615 -16.574860 -7.780889 3.898619 105.717613 -18.802944 -12.081081 4.308634 30.730618 23.076183 
